<?xml version="1.0" encoding="utf-8"?>
<!-- Generator: Adobe Illustrator 24.3.0, SVG Export Plug-In . SVG Version: 6.00 Build 0)  -->
<svg version="1.1" id="PRINT" xmlns="http://www.w3.org/2000/svg" xmlns:xlink="http://www.w3.org/1999/xlink" x="0px" y="0px"
	 viewBox="0 0 595.28 174.36" style="enable-background:new 0 0 595.28 174.36;" xml:space="preserve">
<style type="text/css">
	.st0{clip-path:url(#SVGID_2_);}
	.st1{clip-path:url(#SVGID_4_);}
	.st2{fill:url(#SVGID_5_);}
	.st3{fill:url(#SVGID_6_);}
	.st4{opacity:0.1;fill:#FFFFFF;}
</style>
<g>
	<defs>
		<rect id="SVGID_1_" x="-9.9" y="-58.62" width="615.09" height="861.73"/>
	</defs>
	<clipPath id="SVGID_2_">
		<use xlink:href="#SVGID_1_"  style="overflow:visible;"/>
	</clipPath>
	<g class="st0">
		<g>
			<g>
				<defs>
					<polygon id="SVGID_3_" points="605.2,803.11 -12.61,803.11 -9.9,-58.62 605.2,-58.62 					"/>
				</defs>
				<clipPath id="SVGID_4_">
					<use xlink:href="#SVGID_3_"  style="overflow:visible;"/>
				</clipPath>
				<g class="st1">
					<g>
						
							<linearGradient id="SVGID_5_" gradientUnits="userSpaceOnUse" x1="7090.8853" y1="3893.6152" x2="7700.1816" y2="3893.6152" gradientTransform="matrix(-1.136 0.1916 -0.1663 -0.9861 9349.7471 2480.52)">
							<stop  offset="0" style="stop-color:#344C77"/>
							<stop  offset="0.1771" style="stop-color:#2D4570"/>
							<stop  offset="0.4394" style="stop-color:#1A325C"/>
							<stop  offset="0.5002" style="stop-color:#152D56"/>
							<stop  offset="0.5797" style="stop-color:#1A325C"/>
							<stop  offset="1" style="stop-color:#344C77"/>
						</linearGradient>
						<path class="st2" d="M302.22,45.58c193.11-32.56,291.13,11.94,358.29,34.23L632.87-84.11L-59.3,32.6l28.39,167.53
							C21.87,155.61,105.29,78.79,302.22,45.58z"/>
						
							<linearGradient id="SVGID_6_" gradientUnits="userSpaceOnUse" x1="7095.4736" y1="3956.7344" x2="7704.7695" y2="3956.7344" gradientTransform="matrix(-1.136 0.1916 -0.1663 -0.9861 9349.7471 2480.52)">
							<stop  offset="0" style="stop-color:#152D56"/>
							<stop  offset="0.3474" style="stop-color:#22385F"/>
							<stop  offset="0.5098" style="stop-color:#2A3E65"/>
							<stop  offset="0.7189" style="stop-color:#1F355D"/>
							<stop  offset="1" style="stop-color:#152D56"/>
						</linearGradient>
						<path class="st3" d="M295.23,35.96c150.8-25.43,287.22-11.26,354.38,11.03l-37.27-221.01L-79.82-57.31l38.02,224.63
							C10.98,122.8,138.9,62.32,295.23,35.96z"/>
					</g>
					<path class="st4" d="M-79.92,91.1c0,0,384.67-209.13,798.62-145.36c413.94,63.77-35.54-163.37-35.54-163.37l-842.52,65.11"/>
				</g>
			</g>
		</g>
	</g>
</g>
</svg>
